<?xml version="1.0" encoding="utf-8"?>
<!-- Generator: Adobe Illustrator 26.3.1, SVG Export Plug-In . SVG Version: 6.00 Build 0)  -->
<svg version="1.1" baseProfile="tiny" id="Layer_1" xmlns="http://www.w3.org/2000/svg" xmlns:xlink="http://www.w3.org/1999/xlink"
	 x="0px" y="0px" viewBox="0 0 360 117" overflow="visible" xml:space="preserve">
<g id="Layer_2_1_">
	<g id="Surfaces">
		<g id="Photo_Surface">
			<g id="Outline_no_shadow">
				<path fill="#001E36" d="M141.6,0.5h76.8c11.6,0,21.1,9.4,21.1,21.1v73.9c0,11.6-9.4,21.1-21.1,21.1h-76.8
					c-11.6,0-21.1-9.4-21.1-21.1V21.6C120.5,9.9,129.9,0.5,141.6,0.5z"/>
			</g>
		</g>
	</g>
	<g id="Outlined_Mnemonics_Logos">
		<g id="Ps">
			<path fill="#31A8FF" d="M147.3,81.8v-51c0-0.3,0.1-0.5,0.5-0.5c0.8,0,1.6,0,2.8,0c1.2,0,2.4,0,3.8-0.1c1.3,0,2.8,0,4.3-0.1
				c1.5,0,3,0,4.5,0c4.1,0,7.4,0.5,10.2,1.5c2.5,0.8,4.8,2.2,6.6,4.1c1.6,1.6,2.8,3.5,3.6,5.7c0.7,2.1,1.1,4.2,1.1,6.4
				c0,4.3-1,7.8-3,10.6c-2,2.8-4.8,4.9-8,6c-3.4,1.2-7.1,1.7-11.2,1.7c-1.2,0-2,0-2.5,0c-0.5,0-1.2,0-2.1,0v15.9
				c0,0.3-0.2,0.6-0.5,0.7c0,0-0.1,0-0.2,0h-9.4C147.5,82.5,147.3,82.3,147.3,81.8z M158.1,39.9v16.7c0.7,0,1.3,0.1,1.9,0.1h2.6
				c1.9,0,3.9-0.3,5.7-0.9c1.6-0.4,3-1.4,4.1-2.6c1-1.2,1.5-2.9,1.5-5.1c0-1.5-0.3-3.1-1.1-4.4c-0.8-1.3-2-2.3-3.5-2.8
				c-1.8-0.7-3.8-1-5.8-1c-1.3,0-2.4,0-3.4,0C159.1,39.8,158.4,39.8,158.1,39.9L158.1,39.9z"/>
			<path fill="#31A8FF" d="M215.7,53.5c-1.5-0.8-3.1-1.3-4.8-1.7c-1.8-0.4-3.7-0.6-5.6-0.6c-1,0-2,0.1-3,0.3c-0.6,0.1-1.2,0.5-1.5,1
				c-0.2,0.4-0.4,0.9-0.4,1.3s0.2,0.9,0.5,1.3c0.4,0.5,1,1,1.7,1.3c1.1,0.6,2.3,1.1,3.5,1.6c2.7,0.9,5.3,2.1,7.6,3.6
				c1.6,1,3,2.4,3.9,4.1c0.8,1.6,1.2,3.3,1.1,5.1c0,2.3-0.6,4.7-1.9,6.6c-1.4,2-3.3,3.5-5.6,4.4c-2.4,1-5.4,1.6-9,1.6
				c-2.3,0-4.5-0.2-6.7-0.6c-1.7-0.3-3.5-0.8-5.1-1.6c-0.3-0.2-0.6-0.5-0.5-0.9v-8.6c0-0.1,0-0.3,0.2-0.4c0.1-0.1,0.3,0,0.4,0
				c1.9,1.1,4,1.9,6.1,2.4c1.9,0.5,3.9,0.7,5.8,0.7c1.9,0,3.2-0.2,4.1-0.7c0.8-0.3,1.3-1.2,1.3-2.1c0-0.7-0.4-1.3-1.2-2
				s-2.4-1.4-4.9-2.3c-2.5-0.9-4.9-2.1-7-3.6c-1.5-1.1-2.8-2.5-3.8-4.2c-0.8-1.6-1.2-3.3-1.1-5.1c0-2.1,0.6-4.2,1.7-6
				c1.2-2,3.1-3.6,5.2-4.6c2.3-1.2,5.3-1.7,8.8-1.7c2,0,4.1,0.1,6.1,0.4c1.5,0.2,2.9,0.6,4.3,1.1c0.2,0,0.4,0.2,0.5,0.4
				c0,0.2,0.1,0.4,0.1,0.6V53c0,0.2-0.1,0.4-0.2,0.5C216.1,53.6,215.9,53.6,215.7,53.5z"/>
		</g>
	</g>
</g>
<g>
	<path fill="#49021F" d="M260.1,0.5h76.8c11.6,0,21.1,9.4,21.1,21.1v73.9c0,11.6-9.4,21.1-21.1,21.1h-76.8
		c-11.6,0-21.1-9.4-21.1-21.1V21.6C239,9.9,248.4,0.5,260.1,0.5z"/>
	<g id="vlpa">
		<g id="vlpb">
			<path fill="#FF3366" d="M284.3,30.8v51.1c0,0.5-0.2,0.8-0.7,0.8h-9.7c-0.4,0-0.6-0.2-0.6-0.8V30.8c0-0.4,0.2-0.6,0.7-0.6h9.7
				c0.3,0,0.6,0.1,0.6,0.5C284.3,30.7,284.3,30.8,284.3,30.8z"/>
			<path fill="#FF3366" d="M312.9,83.3c-3.7,0-7.3-0.7-10.7-2.2c-3.1-1.4-5.7-3.8-7.5-6.7c-1.8-3-2.7-6.8-2.7-11.3
				c0-3.7,0.9-7.3,2.7-10.5c1.9-3.2,4.6-5.9,7.9-7.7c3.5-1.9,7.6-2.9,12.5-2.9c0.2,0,0.6,0,1,0s0.9,0,1.5,0.1V26.5
				c0-0.3,0.1-0.5,0.5-0.5h10.1c0.2,0,0.4,0.1,0.5,0.3v0.1v47.2c0,0.9,0,1.9,0.1,3c0.1,1,0.1,2,0.2,2.9c0,0.3-0.1,0.6-0.5,0.8
				c-2.6,1.1-5.3,1.9-8.1,2.4C318.1,83,315.5,83.3,312.9,83.3L312.9,83.3z M317.8,73.4V51.6c-0.4-0.1-0.9-0.2-1.3-0.2
				c-0.5,0-1.1-0.1-1.6-0.1c-1.9,0-3.9,0.4-5.6,1.3c-1.7,0.8-3.1,2.1-4.2,3.7c-1.1,1.6-1.6,3.7-1.6,6.3c0,1.7,0.2,3.5,0.8,5.1
				c0.5,1.3,1.2,2.5,2.2,3.5c0.9,0.9,2.1,1.6,3.4,2c1.3,0.4,2.7,0.6,4.1,0.6c0.7,0,1.4,0,2.1-0.1C316.6,73.7,317.2,73.6,317.8,73.4
				L317.8,73.4z"/>
		</g>
	</g>
</g>
<g id="vlpa_00000146461217945565880110000013571734156520189095_">
	<g id="vlpb_00000157272120556136021880000012610527067852634753_">
		<g id="vlpc">
			<g id="vlpd">
				<path fill="#330000" d="M23.1,0.5h76.8c11.6,0,21.1,9.4,21.1,21.1v73.9c0,11.6-9.4,21.1-21.1,21.1H23.1
					C11.4,116.5,2,107.1,2,95.4V21.6C2,9.9,11.4,0.5,23.1,0.5z"/>
			</g>
		</g>
	</g>
	<g id="vlpe">
		<g id="vlpf">
			<path fill="#FF9A00" d="M57.5,69.9H39.1l-3.8,11.6c-0.1,0.4-0.5,0.7-0.9,0.7H25c-0.5,0-0.7-0.3-0.5-0.9l16-46
				c0.1-0.5,0.3-1,0.5-1.6c0.2-1,0.3-2.1,0.3-3.2c0-0.2,0.1-0.5,0.4-0.5h0.1h12.7c0.4,0,0.6,0.1,0.6,0.4l18.1,51.1
				c0.1,0.5,0,0.8-0.5,0.8H62.4c-0.3,0-0.7-0.2-0.8-0.5L57.5,69.9L57.5,69.9z M41.9,59.8h12.6c-0.3-1-0.7-2.3-1.1-3.6
				c-0.4-1.3-0.9-2.8-1.3-4.3c-0.5-1.5-0.9-3-1.4-4.6s-0.9-3-1.3-4.4c-0.4-1.4-0.7-2.7-1.1-3.9h-0.1c-0.4,2.1-1,4.3-1.7,6.4
				c-0.7,2.4-1.5,4.9-2.3,7.3C43.4,55.4,42.7,57.8,41.9,59.8z"/>
			<path fill="#FF9A00" d="M84.3,38.7c-1.6,0-3.2-0.6-4.4-1.7c-1.1-1.2-1.7-2.9-1.7-4.6c0-1.7,0.6-3.3,1.8-4.4
				c1.2-1.1,2.8-1.7,4.4-1.7c1.9,0,3.4,0.6,4.5,1.7c1.1,1.2,1.7,2.8,1.6,4.4c0,1.7-0.5,3.3-1.7,4.6C87.6,38.1,86,38.8,84.3,38.7
				L84.3,38.7z M78.7,81.7V43.5c0-0.5,0.2-0.7,0.6-0.7h9.8c0.4,0,0.6,0.2,0.6,0.7v38.2c0,0.5-0.2,0.8-0.6,0.8h-9.7
				C79,82.5,78.7,82.2,78.7,81.7z"/>
		</g>
	</g>
</g>
</svg>
