<?xml version="1.0" encoding="utf-8"?>
<!-- Generator: Adobe Illustrator 26.3.1, SVG Export Plug-In . SVG Version: 6.00 Build 0)  -->
<svg version="1.1" baseProfile="tiny" id="a" xmlns="http://www.w3.org/2000/svg" xmlns:xlink="http://www.w3.org/1999/xlink"
	 x="0px" y="0px" viewBox="0 0 240 205" overflow="visible" xml:space="preserve">
<g>
	<g id="c">
		<g>
			<path fill="none" stroke="#000000" stroke-width="3.3926" d="M74.9,129.3c-6.5,0-9.7,0-16.2-0.1c-4.3-13.2-5.2-22.2-4.2-36.6
				c0.9-6.1-4.7-5.7-4.8,0c-1,14.5-0.1,23.5,4.6,36.6c-6.5,0-9.8,0.4-16.4,0c-6-13.4-7.2-23.1-5.5-38.2c-0.2-1.9-0.7-2.7-1.8-2.7
				c-1.7,0-2.8,1.5-3.2,4.4c-1.4,14.3,0,23.3,6,35.9C9.6,125,4.1,89.8,23.8,77c5.4-3.4,11.3-4.6,17.7-4.5c2.3,0.1,2.7,3.3,2.5,5.4
				h0.2c1.1-2,4.1-5.4,6.5-5.4c2.8,0.6,20.8-1.5,22.3,1.5c0.8,1,1,2.5,0.6,4.4C70.4,96.6,70.7,111.8,74.9,129.3z"/>
			<path fill="none" stroke="#000000" stroke-width="3.3926" d="M117.4,122c0.1,3.5-1.9,7.3-5.4,7.3c0,0-25.9,0-25.9,0
				c-3.5,0-6.5-3.8-7-7.3c-2.3-15.8-2.2-27.9,0.3-43.6c0.8-8.4,11.9-5.2,17.4-5.8c-0.4,4.3-4.8,41.9,0.9,41c1.7,0.1,2.3-1.3,2.3-4.3
				c-0.3-14.3,0-23.3,1.3-36.7h16.4C117.3,89.9,117.2,104.3,117.4,122L117.4,122z"/>
			<path fill="none" stroke="#000000" stroke-width="3.3926" d="M161.3,123.1c-0.5,3.3-3.6,6.2-6.8,6.2c0,0-31.2,0-31.2,0
				c0.1-5.5,0.1-8.7,0.2-15.4h18.1c4,0.4,5.1-4.2,1.6-5.4c0,0-13.6,0-13.6,0c-4.1,0-6.1-2.5-6.1-7.7c0-9.3,0-13.9-0.1-21.7
				c-0.1-3.2,2.1-6.5,5.4-6.5c0,0,31.2,0,31.2,0c1.3,5.6,1.8,8.8,2.4,15.6h-18.1c-3.9-0.4-4.7,4.6-1.2,5.6c0,0,13.5,0,13.5,0
				c4.1,0,6.4,2.5,6.4,7.8C162.8,110.6,162.8,112.8,161.3,123.1L161.3,123.1z"/>
			<path fill="none" stroke="#000000" stroke-width="3.3926" d="M183.7,123.6c-3.1,7.6-11.9,5.5-18.2,5.7
				c12.1-48.4-13.1-58.7,16.4-56.7C187.7,90.1,188.1,105.4,183.7,123.6z"/>
			<path fill="none" stroke="#000000" stroke-width="3.3926" d="M224.8,116.7c-7.3,11.8-19.1,13.2-32.5,12.6c-3.8,0-4.1-4-3.3-7.2
				c2-7.7,2.7-14.4,2.7-21.2c0-6.8-0.6-13.4-2.7-21.1c-0.8-3.2-0.6-7.2,3.3-7.2c10.4,0,16.4-0.6,24.7,4.5
				c6.2,4.3,10.5,10.9,11.5,18.5c-5-0.9-8.1-1.3-14.7-1.6c0.4-5.3-5.9-8.8-4.8-1.3c0.8,6.9,0.8,10.7-0.1,17.6c-1,7.5,5.2,4.1,5-2.1
				c6.7-0.3,9.8-0.7,14.7-1.6C227.7,110.9,226.9,113,224.8,116.7L224.8,116.7z"/>
		</g>
	</g>
	<g id="d">
		<g>
			<path d="M77,65.6c-0.2,2.1-2.1,4.2-4.3,4.2c0,0-12.1,0-12.1,0c0.3-1.5,0.4-2.3,0.7-3.8c-4.3-0.5-15,2.1-17.3-0.7
				c-0.9-6.5,9.9-18.6,14.5-23.6C61.9,38,80,21.9,83.9,24.6c0.8,4.5-1.9,8.6-2.4,13.4c-5.3,1.3-7.8,2.1-12.8,3.8
				c0.6-1.3,1.3-3.5-0.4-2.7c0,0,0,0,0,0c-4.2,2.9-4.8,8.8-6.9,13.5c-0.6,1.8-0.3,2.6,0.8,2.4c3.4-1,3-6,4.5-8.7
				C86.9,40.1,77.9,45.9,77,65.6L77,65.6z"/>
			<path d="M117.8,64.9c-6.2,0-9.3,0-15.4,0c0.2-8,0.4-11.9,0.8-19.4c-1.6,0.1-2.5,0.2-4.1,0.3c-0.5,7.4-0.7,11.3-1,19.2
				c-6.3,0.1-9.4,0.2-15.6,0.4c1.5-15.9,2.7-23.8,5.8-38.8c2.4-10.4,16.5-9.8,25.4-11.2c7.5-1,3.3,22.9,4.2,27.1
				C117.9,49,117.8,55.6,117.8,64.9z M103.9,34.1c1-6.3-4.1-5-3.9,0.5C101.5,34.4,102.3,34.3,103.9,34.1z"/>
			<path d="M157.5,48.9c0.6,3.2,1.6,13.8,1.8,16.5c-6.2-0.2-9.3-0.2-15.5-0.3c-1-5.2,1.7-19.3-5.1-19.3c0.4,7.5,0.6,11.4,0.9,19.3
				c-6.3-0.1-9.4-0.1-15.7-0.1c-0.1-20.3-0.2-30.4-0.5-49.7c9.5,0.9,27,0.8,29.9,11.1c1.3,5.5,1.9,8.3,2.9,14.3
				c0.5,2.1-2.4,3.8-4.2,3.8c0,0.1,0,0.1,0,0.1C153.9,45,157.2,46.8,157.5,48.9L157.5,48.9z M141.6,32.5c0.1-1.9-2-2.7-4-2.8
				c0.1,1.8,0.2,2.8,0.4,4.6C139.7,34.7,141.9,34.6,141.6,32.5z"/>
			<path d="M190.2,51.5c1.7,4.2-4.2,1.5-6.2,1.2c2.3,5.3,3.3,8,5,13.7c-17.9,0-15-0.9-18.9-16.8c-4.2-0.4-9.2-1.9-9.8-6.5
				c-1.7-8.7-2.8-12.8-5.1-20.5c9.7,4.2,12.1,5.8,15.7,16c1,2.3,1.9,3.7,2.9,4c3.2,0.4-4.3-10.7-5-12.2
				C177.5,36.3,184.4,43.1,190.2,51.5z"/>
		</g>
	</g>
	<g id="e">
		<g>
			<path d="M87.9,167.3c0.5,3.3,2.4,13.5,3.1,16.2c-5.7-2.1-8.4-3.4-13.6-6.4c-3.4-5.5-2.9-13.9-10-16.4c2.3,6,3.7,8.9,6.5,14.2
				c-15.9-10.7-25.9-23.1-33.1-40.9h36.7c3.5-0.1,6.9,3.4,7.1,6.8c0.6,7.1,1,10.6,1.9,17.3c0.4,2.4-3,4.2-5.1,3.9c0,0.1,0,0.1,0,0.1
				C83.6,162.9,87.5,165,87.9,167.3L87.9,167.3z M68.1,149.7c-0.1-1.9-3-2.7-5.3-2.8c0.5,1.7,0.7,2.5,1.2,4.2
				C65.8,151.5,68.8,151.8,68.1,149.7z"/>
			<path d="M125.7,188.5c-9.4,0.1-22.2,1.2-29.3-4.9c-4.2-6.4-3.3-16.5-4.7-22.8c-5-36.7-0.3-24.9,35-26.8c0,6.9-0.1,10.3-0.2,16.9
				c-5.6,0.1-8.4,0.1-14,0c-2.5-0.1-3.7,0.8-3.7,2.7v-0.1c-0.1,5,13.7,2.3,17.5,2.9c-0.1,5.2-0.1,7.8-0.2,12.8
				c-5.3,0.2-8,0.2-13.2-0.1c-2.5-0.1-3.6,0.8-3.4,2.6c0.6,4.4,12.8,2.1,16.5,2.5C125.9,180.1,125.9,183,125.7,188.5L125.7,188.5z"
				/>
			<path d="M146.3,179.7c-2,7.1-9.9,7.8-16.1,8.4c1-18.4,1.4-28.1,1.8-47.4c0.7-9.4,13.1-6.4,19.2-6.8
				C150,152.6,149,162,146.3,179.7L146.3,179.7z"/>
			<path d="M182.6,161.7c-10,10.2-19.4,16.7-32.8,21.7c4.1-19,5.5-29.2,7.1-49.5c14.7,0,22,0,36.7,0.1
				C206.8,134.1,186.3,157.7,182.6,161.7L182.6,161.7z M173.3,161.6c0.4-2.2,7.3-15.4,2.6-14.4c-4.3,0.5-4.7,12-6.8,15.8
				C167.5,168,172.7,164.2,173.3,161.6L173.3,161.6z"/>
		</g>
	</g>
	<path fill="none" stroke="#000000" stroke-width="1.2096" d="M56.7,122.6c54.4,0.2,108.7,0.2,163.2,0"/>
	<path fill="none" stroke="#000000" stroke-width="1.2096" d="M35.3,122.7c5.5,0,10.9,0,16.4-0.2"/>
	<path fill="none" stroke="#000000" stroke-width="1.2096" d="M20.6,122.6c3.2,0.1,6.5,0.1,9.7,0.1"/>
	<path fill="none" stroke="#000000" stroke-width="1.6934" d="M55.2,114.7c51.6-0.1,102.9-0.1,154.4,0"/>
	<path fill="none" stroke="#000000" stroke-width="1.6934" d="M33.7,114.6c5.6,0,11.2,0,16.8,0.1"/>
	<path fill="none" stroke="#000000" stroke-width="1.6934" d="M15,114.7c4.5,0,8.9-0.1,13.4-0.1"/>
	<path fill="none" stroke="#000000" stroke-width="2.183" d="M101.4,106.3c35.9,0,72.3,0,108.3,0"/>
	<path fill="none" stroke="#000000" stroke-width="2.183" d="M54.2,106.3c13.4,0,26.8,0,40.1,0"/>
	<path fill="none" stroke="#000000" stroke-width="2.183" d="M32.3,106.3c5.9,0,11.7,0,17.6,0"/>
	<path fill="none" stroke="#000000" stroke-width="2.183" d="M13.5,106.3c4.4,0,8.9,0,13.3,0"/>
	<path fill="none" stroke="#000000" stroke-width="2.6669" d="M101.1,97.5c36.3,0.1,72.1,0.1,108.6-0.1"/>
	<path fill="none" stroke="#000000" stroke-width="2.6669" d="M54.2,97.4c13.5,0,27,0.1,40.5,0.1"/>
	<path fill="none" stroke="#000000" stroke-width="2.6669" d="M31.9,97.5c6,0,12.1,0,18.1-0.1"/>
	<path fill="none" stroke="#000000" stroke-width="2.6669" d="M11.5,97.4c5.1,0.1,10.3,0.1,15.4,0.1"/>
	<path fill="none" stroke="#000000" stroke-width="3.1507" d="M101.1,88.4c36.8-0.1,74.1-0.1,110.9,0.1"/>
	<path fill="none" stroke="#000000" stroke-width="3.1507" d="M54.1,88.5c13.5,0,27.1-0.1,40.6-0.1"/>
	<path fill="none" stroke="#000000" stroke-width="3.1507" d="M13.8,88.5c12.6-0.2,24.7-0.2,37.5,0"/>
	<path fill="none" stroke="#000000" stroke-width="3.6346" d="M101.6,79.7c39.1,0,78.9,0,118.3,0"/>
	<path fill="none" stroke="#000000" stroke-width="3.6346" d="M20.6,79.7c24.7,0,49.9,0,74.6,0"/>
</g>
</svg>
